<mxfile host="app.diagrams.net" agent="Mozilla/5.0 (Macintosh; Intel Mac OS X 10_15_7) AppleWebKit/537.36 (KHTML, like Gecko) Chrome/131.0.0.0 Safari/537.36 OPR/116.0.0.0" version="26.0.14">
  <diagram name="PÃ¡gina-1" id="qCZQ6PGgSt_XUSw0B8FZ">
    <mxGraphModel dx="1182" dy="822" grid="1" gridSize="10" guides="1" tooltips="1" connect="1" arrows="1" fold="1" page="1" pageScale="1" pageWidth="827" pageHeight="1169" math="0" shadow="0">
      <root>
        <mxCell id="0" />
        <mxCell id="1" parent="0" />
        <mxCell id="gmL38EDkr-e-MJclMoQu-1" value="&lt;font style=&quot;font-size: 30px; line-height: 140%;&quot;&gt;public_html&lt;/font&gt;" style="rounded=1;whiteSpace=wrap;html=1;fillColor=#dae8fc;strokeColor=#6c8ebf;align=center;labelPosition=center;verticalLabelPosition=top;verticalAlign=bottom;" vertex="1" parent="1">
          <mxGeometry x="140" y="210" width="370" height="350" as="geometry" />
        </mxCell>
        <mxCell id="gmL38EDkr-e-MJclMoQu-2" value="Everything in public: index.php, .htaccess, css, favicon.ico, images, js, robots.txt." style="rounded=1;whiteSpace=wrap;html=1;" vertex="1" parent="1">
          <mxGeometry x="170" y="250" width="310" height="150" as="geometry" />
        </mxCell>
        <mxCell id="gmL38EDkr-e-MJclMoQu-3" value="Actual project: ci_tournament_bracket-generator" style="rounded=1;whiteSpace=wrap;html=1;" vertex="1" parent="1">
          <mxGeometry x="165" y="410" width="320" height="120" as="geometry" />
        </mxCell>
      </root>
    </mxGraphModel>
  </diagram>
</mxfile>
